<svg id="visual" viewBox="0 0 900 600" width="900" height="600" xmlns="http://www.w3.org/2000/svg" xmlns:xlink="http://www.w3.org/1999/xlink" version="1.1"><path d="M0 425L21.5 422.2C43 419.3 86 413.7 128.8 410.8C171.7 408 214.3 408 257.2 410.8C300 413.7 343 419.3 385.8 420.2C428.7 421 471.3 417 514.2 418.7C557 420.3 600 427.7 642.8 436C685.7 444.3 728.3 453.7 771.2 449.5C814 445.3 857 427.7 878.5 418.8L900 410L900 601L878.5 601C857 601 814 601 771.2 601C728.3 601 685.7 601 642.8 601C600 601 557 601 514.2 601C471.3 601 428.7 601 385.8 601C343 601 300 601 257.2 601C214.3 601 171.7 601 128.8 601C86 601 43 601 21.5 601L0 601Z" fill="#0c8c2b"></path><path d="M0 498L21.5 498.3C43 498.7 86 499.3 128.8 500.5C171.7 501.7 214.3 503.3 257.2 498.2C300 493 343 481 385.8 478.3C428.7 475.7 471.3 482.3 514.2 487.8C557 493.3 600 497.7 642.8 490.5C685.7 483.3 728.3 464.7 771.2 466.2C814 467.7 857 489.3 878.5 500.2L900 511L900 601L878.5 601C857 601 814 601 771.2 601C728.3 601 685.7 601 642.8 601C600 601 557 601 514.2 601C471.3 601 428.7 601 385.8 601C343 601 300 601 257.2 601C214.3 601 171.7 601 128.8 601C86 601 43 601 21.5 601L0 601Z" fill="#057825"></path><path d="M0 497L21.5 495.3C43 493.7 86 490.3 128.8 488.7C171.7 487 214.3 487 257.2 488.5C300 490 343 493 385.8 500.7C428.7 508.3 471.3 520.7 514.2 520C557 519.3 600 505.7 642.8 505.3C685.7 505 728.3 518 771.2 517.5C814 517 857 503 878.5 496L900 489L900 601L878.5 601C857 601 814 601 771.2 601C728.3 601 685.7 601 642.8 601C600 601 557 601 514.2 601C471.3 601 428.7 601 385.8 601C343 601 300 601 257.2 601C214.3 601 171.7 601 128.8 601C86 601 43 601 21.5 601L0 601Z" fill="#01651f"></path><path d="M0 556L21.5 551.5C43 547 86 538 128.8 534.3C171.7 530.7 214.3 532.3 257.2 534.2C300 536 343 538 385.8 538C428.7 538 471.3 536 514.2 541.5C557 547 600 560 642.8 566.8C685.7 573.7 728.3 574.3 771.2 573.2C814 572 857 569 878.5 567.5L900 566L900 601L878.5 601C857 601 814 601 771.2 601C728.3 601 685.7 601 642.8 601C600 601 557 601 514.2 601C471.3 601 428.7 601 385.8 601C343 601 300 601 257.2 601C214.3 601 171.7 601 128.8 601C86 601 43 601 21.5 601L0 601Z" fill="#005219"></path></svg>